<?xml version="1.0" standalone="no"?>
<!DOCTYPE svg PUBLIC "-//W3C//DTD SVG 20010904//EN"
 "http://www.w3.org/TR/2001/REC-SVG-20010904/DTD/svg10.dtd">
<svg version="1.0" xmlns="http://www.w3.org/2000/svg"
 width="260.000000pt" height="260.000000pt" viewBox="0 0 260.000000 260.000000"
 preserveAspectRatio="xMidYMid meet">
<metadata>
Created by potrace 1.11, written by Peter Selinger 2001-2013
</metadata>
<g transform="translate(0.000000,260.000000) scale(0.100000,-0.100000)"
fill="#000000" stroke="none">
<path d="M832 2076 c4 -5 2 -16 -5 -25 -10 -14 -10 -14 4 -3 14 10 18 10 22
-1 3 -9 -2 -13 -16 -11 -12 1 -22 3 -22 4 0 1 -8 3 -17 5 -10 2 -16 -2 -15 -8
1 -7 -4 -11 -10 -9 -7 1 -12 -3 -10 -9 1 -6 -4 -14 -11 -16 -8 -3 -10 2 -6 14
5 14 4 15 -4 3 -6 -8 -8 -18 -6 -22 3 -4 -3 -8 -13 -8 -21 0 -56 -37 -48 -50
3 -5 -3 -7 -15 -5 -20 4 -23 -13 -5 -28 6 -5 0 -7 -13 -4 -18 4 -22 2 -18 -10
5 -13 4 -14 -8 -4 -12 10 -13 8 -9 -10 4 -15 3 -20 -5 -15 -8 5 -12 0 -12 -12
0 -11 -10 -27 -22 -36 -13 -9 -17 -14 -10 -11 21 10 13 -5 -15 -31 -16 -14
-23 -23 -17 -20 18 9 35 -17 22 -34 -8 -12 -9 -11 -4 3 4 12 2 17 -6 15 -10
-4 -13 -41 -14 -136 -1 -129 1 -138 30 -133 5 1 3 -5 -4 -14 -10 -12 -11 -18
-1 -28 10 -9 11 -8 6 6 -4 9 -3 17 3 17 12 0 11 -18 -2 -38 -5 -9 -2 -19 8
-28 9 -8 11 -9 6 -2 -6 7 -10 16 -10 22 0 18 29 -29 30 -47 0 -14 5 -17 23
-12 15 4 18 3 8 -3 -9 -7 -10 -11 -2 -17 8 -4 9 -11 2 -19 -6 -7 -6 -17 -1
-26 13 -20 12 -33 0 -25 -5 3 -10 1 -10 -5 0 -6 -6 -8 -12 -4 -7 4 -4 -3 7
-16 l20 -23 -22 12 c-16 8 -24 8 -29 -1 -4 -6 -3 -8 4 -4 6 3 14 1 18 -6 11
-17 12 -48 2 -42 -4 3 -8 0 -8 -5 0 -6 4 -11 9 -11 11 0 9 -19 -3 -39 -7 -10
-3 -12 15 -6 21 7 22 6 10 -9 -8 -9 -11 -19 -7 -23 3 -3 6 -1 6 5 0 6 7 9 15
6 8 -4 15 -10 15 -16 0 -5 -6 -6 -12 -2 -7 4 -9 3 -5 -1 11 -13 38 -15 31 -3
-4 6 2 5 15 -1 11 -7 21 -16 21 -22 0 -6 5 -7 10 -4 6 4 8 12 4 18 -3 7 1 4 9
-5 8 -10 18 -14 23 -10 4 4 2 -1 -5 -10 -9 -12 -10 -18 -2 -18 6 0 10 -5 8
-12 -1 -7 3 -12 10 -13 6 0 15 -3 18 -7 4 -4 -5 -5 -21 -3 -24 4 -26 3 -11 -6
9 -5 15 -15 11 -21 -4 -5 4 -4 17 3 22 11 23 11 10 -4 -9 -12 -10 -17 -2 -17
7 0 9 -4 6 -10 -4 -6 5 -10 19 -10 19 0 26 -5 26 -20 0 -11 4 -20 10 -20 5 0
7 7 3 16 -5 14 -3 15 14 6 11 -6 23 -8 27 -5 3 3 6 -2 6 -12 0 -10 7 -23 16
-30 15 -10 15 -13 0 -27 -9 -9 -16 -20 -16 -24 0 -5 5 -3 12 4 9 9 16 8 30 -5
10 -9 18 -22 18 -30 0 -7 5 -13 11 -13 5 0 7 -6 3 -12 -5 -9 -2 -9 9 1 15 12
17 11 17 -5 0 -15 2 -16 9 -5 7 12 13 12 24 3 7 -7 16 -10 19 -7 3 3 11 -1 18
-10 7 -8 9 -15 5 -15 -4 0 1 -12 11 -27 15 -24 15 -26 1 -14 -22 18 -22 3 0
-21 16 -18 16 -19 -3 -13 -17 6 -17 6 -1 -5 9 -6 21 -9 26 -6 5 3 12 -1 15
-10 4 -10 2 -13 -7 -8 -9 5 -8 3 1 -7 11 -11 14 -12 21 -1 7 11 10 10 14 -3 4
-9 3 -14 -1 -11 -4 2 -14 1 -21 -3 -7 -5 6 -8 33 -8 25 0 43 3 41 8 -3 4 -1
11 5 14 6 4 9 1 8 -5 -3 -13 26 -22 47 -13 8 2 11 11 8 19 -3 8 -9 11 -14 8
-5 -3 -6 -10 -3 -16 5 -7 2 -8 -5 -3 -9 5 -10 10 -2 18 15 15 43 18 57 6 8 -7
15 -6 20 2 5 8 3 9 -6 4 -9 -5 -11 -4 -6 4 4 6 12 9 17 5 5 -3 7 -10 4 -15 -4
-5 -1 -9 4 -9 6 0 11 -7 11 -15 0 -8 4 -15 10 -15 5 0 7 8 3 18 -5 16 -5 16 8
0 11 -14 27 -17 76 -15 33 1 59 5 56 10 -2 4 1 7 8 7 7 0 10 3 7 6 -4 3 -17 1
-30 -6 l-23 -11 24 20 c12 12 28 18 33 15 6 -4 5 2 -1 14 -10 18 -9 20 9 17
11 -2 18 0 15 5 -3 5 3 13 12 19 13 7 14 10 4 11 -8 0 -11 3 -8 6 3 4 1 16 -5
28 -9 17 -8 19 3 9 18 -17 34 -16 20 1 -9 11 -6 14 14 14 15 0 22 -5 18 -12
-4 -7 -1 -6 9 1 8 7 19 9 23 5 5 -4 5 -1 1 6 -4 7 -12 9 -18 6 -7 -4 -8 -2 -4
5 4 6 11 9 16 6 5 -3 14 3 20 12 9 15 10 14 6 -7 -5 -24 -5 -23 7 3 7 15 17
24 22 20 5 -5 3 1 -5 11 -14 18 -14 19 6 8 20 -10 21 -9 19 17 -1 16 -6 34
-10 41 -5 9 -4 11 3 6 7 -4 20 -2 29 4 14 9 14 10 2 7 -9 -3 -16 1 -16 8 0 9
7 11 21 6 31 -11 51 -7 48 8 -2 9 3 11 14 7 13 -5 14 -4 6 7 -16 19 -3 30 16
14 13 -10 15 -9 9 5 -3 10 -2 20 4 23 5 4 6 11 3 17 -4 7 -2 8 5 4 9 -6 9 -11
1 -21 -8 -9 -8 -15 0 -20 6 -4 10 -3 9 2 -1 4 -1 10 1 13 7 20 9 50 2 46 -5
-3 -9 1 -9 9 0 8 4 12 9 9 8 -5 11 7 9 36 0 10 1 11 5 3 7 -15 34 -17 34 -3 0
6 5 10 11 10 5 0 7 -4 4 -10 -7 -12 22 -2 50 17 23 16 13 17 -18 2 -22 -10
-22 -10 -2 6 11 9 28 14 37 11 10 -2 21 1 25 6 3 6 1 8 -5 4 -6 -3 -13 -2 -17
4 -4 6 -11 7 -17 4 -7 -4 -8 -2 -4 4 4 6 14 8 23 5 11 -4 14 -3 9 5 -5 8 -2
10 8 6 9 -3 16 -1 16 5 0 6 -4 11 -10 11 -5 0 -10 5 -10 11 0 6 7 9 14 6 11
-4 13 -1 9 11 -4 9 -11 20 -17 24 -8 6 -8 8 0 8 6 0 11 7 11 15 0 8 -4 15 -9
15 -4 0 -8 5 -8 11 0 5 5 7 12 3 7 -4 8 -3 4 4 -4 6 -13 9 -22 5 -9 -3 -14 0
-12 8 2 8 -2 13 -8 12 -15 -3 -13 25 2 31 8 3 11 0 7 -10 -3 -7 -1 -14 5 -14
11 0 11 18 -1 36 -7 13 1 24 17 24 6 0 4 -5 -4 -10 -8 -5 -10 -10 -4 -10 18 0
24 13 12 27 -8 11 -7 12 6 7 18 -7 19 15 1 29 -5 4 2 5 18 1 17 -4 27 -2 27 6
0 6 -4 9 -9 6 -5 -3 -8 5 -7 19 1 21 11 29 36 27 3 0 6 20 8 44 2 34 -1 43
-10 38 -10 -6 -10 -5 -1 7 8 10 11 49 9 125 -4 131 -3 124 -17 124 -8 0 -8 -4
0 -14 9 -11 9 -16 0 -22 -7 -4 -9 -3 -5 4 3 6 -2 15 -11 21 -10 6 -12 11 -5
11 6 0 12 5 12 11 0 5 -4 8 -8 5 -4 -2 -9 4 -9 15 -1 10 4 19 10 20 7 0 2 4
-10 9 -13 5 -23 14 -23 20 0 6 5 8 10 5 6 -3 10 -1 10 4 0 15 -13 14 -29 -1
-7 -7 -12 -8 -11 -3 5 21 0 36 -10 30 -6 -4 -7 1 -3 11 5 13 3 16 -10 11 -12
-4 -14 -2 -10 10 4 11 2 14 -5 9 -8 -5 -10 -2 -6 8 6 14 -10 21 -37 18 -4 -1
-5 8 -2 18 3 12 0 20 -6 20 -7 0 -9 -5 -5 -12 5 -8 0 -7 -11 2 -10 8 -21 14
-24 13 -3 -2 -6 2 -6 7 0 6 -4 10 -8 9 -5 0 -15 8 -24 18 -8 10 -11 12 -8 5 6
-11 3 -12 -12 -3 -11 6 -23 8 -25 5 -3 -3 -8 2 -12 11 -3 9 -2 13 4 10 6 -3
10 -1 10 4 0 14 -17 14 -25 1 -3 -5 -11 -10 -17 -10 -7 0 -6 6 2 15 15 18 10
18 -25 5 -14 -5 -24 -6 -21 -1 9 13 -136 11 -153 -3 -12 -8 -13 -8 -7 2 4 7 1
12 -8 12 -15 0 -21 -12 -16 -35 1 -5 -4 -4 -11 3 -15 14 -33 16 -24 2 3 -6 -1
-7 -9 -4 -9 3 -14 9 -11 13 2 4 -2 8 -10 8 -13 0 -13 -3 1 -18 14 -16 14 -17
-3 -15 -10 0 -21 6 -25 11 -4 6 -8 0 -8 -13 0 -13 -4 -20 -10 -17 -6 4 -7 12
-4 18 4 7 3 8 -2 4 -5 -5 -9 -14 -9 -20 -1 -7 -7 -11 -14 -9 -8 2 -11 -3 -8
-11 3 -7 -1 -14 -9 -14 -7 0 -11 3 -9 7 2 4 -2 7 -10 7 -7 0 -12 -8 -10 -19 4
-16 1 -17 -30 -4 -25 11 -36 11 -45 3 -7 -7 -10 -7 -7 -1 3 5 -5 18 -18 28
-14 10 -23 22 -20 26 2 4 -5 7 -18 6 -13 -1 -21 4 -19 12 1 8 -2 11 -8 7 -6
-3 -8 -11 -5 -16 4 -5 2 -9 -3 -9 -11 0 -26 30 -23 44 1 5 -5 4 -13 -3 -8 -7
-12 -20 -10 -29 5 -15 4 -15 -6 1 -6 9 -9 21 -6 25 2 4 -31 8 -75 8 -52 1 -79
-2 -79 -10 0 -7 -3 -7 -8 -1 -4 6 -22 10 -40 10 -28 0 -30 -1 -16 -12 9 -7 21
-10 27 -6 6 3 7 1 3 -5 -8 -13 -32 -6 -61 17 -11 9 -17 12 -13 7z m158 -10 c0
-3 -4 -8 -10 -11 -5 -3 -10 -1 -10 4 0 6 5 11 10 11 6 0 10 -2 10 -4z m84 -26
c-6 -6 -10 -3 -10 10 0 13 4 16 10 10 7 -7 7 -13 0 -20z m54 -5 c-3 -3 -9 2
-12 12 -6 14 -5 15 5 6 7 -7 10 -15 7 -18z m-318 -5 c0 -5 -5 -10 -11 -10 -5
0 -7 5 -4 10 3 6 8 10 11 10 2 0 4 -4 4 -10z m394 -19 c17 -19 17 -19 0 -17
-9 2 -18 10 -20 19 -3 21 -1 21 20 -2z m90 -58 c5 -12 4 -13 -7 -5 -8 7 -16
10 -19 7 -2 -3 -5 1 -5 9 0 18 24 10 31 -11z m-729 -183 c-3 -5 -11 -10 -16
-10 -6 0 -7 5 -4 10 3 6 11 10 16 10 6 0 7 -4 4 -10z m-18 -275 c0 -8 -4 -12
-9 -9 -5 3 -6 10 -3 15 9 13 12 11 12 -6z m1518 -45 c-3 -5 -12 -10 -18 -10
-7 0 -6 4 3 10 19 12 23 12 15 0z m-1420 -168 c-3 -3 -11 0 -18 7 -9 10 -8 11
6 5 10 -3 15 -9 12 -12z m1119 -390 c3 -5 -1 -9 -9 -9 -8 0 -12 4 -9 9 3 4 7
8 9 8 2 0 6 -4 9 -8z m-77 -77 c0 -8 -4 -12 -9 -9 -5 3 -6 10 -3 15 9 13 12
11 12 -6z m-151 -142 c-2 -9 -9 -19 -17 -21 -9 -2 -10 -1 -3 5 6 4 10 16 8 26
-1 9 1 15 6 12 5 -3 7 -13 6 -22z"/>
<path d="M1470 2076 c0 -2 7 -6 15 -10 8 -3 15 -1 15 4 0 6 -7 10 -15 10 -8 0
-15 -2 -15 -4z"/>
<path d="M1793 2055 c0 -8 4 -12 9 -9 5 3 6 10 3 15 -9 13 -12 11 -12 -6z"/>
<path d="M1866 2002 c-3 -5 1 -9 9 -9 8 0 15 4 15 9 0 4 -4 8 -9 8 -6 0 -12
-4 -15 -8z"/>
<path d="M590 1322 c0 -5 7 -9 15 -9 8 0 12 4 9 9 -3 4 -9 8 -15 8 -5 0 -9 -4
-9 -8z"/>
<path d="M573 1183 c0 -7 4 -13 8 -13 4 0 9 6 12 13 3 8 0 14 -7 14 -7 0 -13
-6 -13 -14z"/>
<path d="M1865 1009 c-4 -6 -5 -12 -2 -15 2 -3 7 2 10 11 7 17 1 20 -8 4z"/>
<path d="M910 786 c0 -2 7 -7 16 -10 8 -3 12 -2 9 4 -6 10 -25 14 -25 6z"/>
<path d="M1036 712 c-3 -5 1 -9 9 -9 8 0 12 4 9 9 -3 4 -7 8 -9 8 -2 0 -6 -4
-9 -8z"/>
<path d="M1045 680 c3 -5 8 -10 11 -10 2 0 4 5 4 10 0 6 -5 10 -11 10 -5 0 -7
-4 -4 -10z"/>
<path d="M1308 573 c7 -3 16 -2 19 1 4 3 -2 6 -13 5 -11 0 -14 -3 -6 -6z"/>
</g>
</svg>
